<svg width="697" height="700" viewBox="0 0 697 700" fill="none" xmlns="http://www.w3.org/2000/svg">
<path d="M697 350C697 543.3 540.971 700 348.5 700C156.029 700 0 543.3 0 350C0 156.7 156.029 0 348.5 0C540.971 0 697 156.7 697 350Z" fill="#F19308"/>
<path d="M233.994 469.294H295.729C300.062 469.294 303.573 466.04 303.573 462.023V370.364C303.573 366.348 300.062 363.091 295.729 363.091H233.994C229.662 363.091 226.149 366.348 226.149 370.364V462.024C226.149 466.04 229.662 469.294 233.994 469.294Z" fill="white"/>
<path d="M346.551 334.75C342.218 334.75 338.705 338.007 338.705 342.021V462.023C338.705 466.04 342.218 469.294 346.551 469.294H408.284C412.618 469.294 416.13 466.04 416.13 462.023V342.021C416.13 338.007 412.618 334.75 408.284 334.75H346.551Z" fill="white"/>
<path d="M451.262 290.607V462.024C451.262 466.04 454.775 469.294 459.107 469.294H520.841C525.173 469.294 528.688 466.04 528.688 462.024V290.607C528.688 286.591 525.173 283.337 520.841 283.337H459.107C454.775 283.337 451.262 286.591 451.262 290.607Z" fill="white"/>
<path d="M531.311 502.431H195.566V166.686V154H152V166.686V502.431V533.307V546H164.689H195.566H531.311H544V502.431H531.311Z" fill="white"/>
<path d="M323.669 245.13L387.283 308.417L478.725 217.442L499.6 238.21L513.704 154L429.064 168.035L449.937 188.803L387.283 251.139L323.669 187.849L226.149 284.865L254.936 313.507L323.669 245.13Z" fill="white"/>
</svg>
